<svg width="16" height="16" viewBox="0 0 16 16" fill="none" xmlns="http://www.w3.org/2000/svg">
<path d="M13.5822 7.43037L13.5 7.92357L13.5 7.92357L13.5822 7.43037ZM11.1581 7.02635L11.0759 7.51954L11.0759 7.51954L11.1581 7.02635ZM10.8867 6.8867L11.2403 6.53315L11.2403 6.53315L10.8867 6.8867ZM9.58579 5.58579L9.93934 5.23223L9.58579 5.58579ZM3.39951 5.75061L3.00908 5.43826L3.00908 5.43826L3.39951 5.75061ZM2.10957 7.36305L2.5 7.67539L2.5 7.67539L2.10957 7.36305ZM8.44741 7.22358C8.57089 6.97658 8.47075 6.67625 8.22376 6.55277C7.97676 6.42929 7.67643 6.52943 7.55295 6.77642L8.44741 7.22358ZM7.00035 9L6.55312 8.77642C6.47564 8.93142 6.48393 9.11548 6.57504 9.26288C6.66614 9.41028 6.82707 9.5 7.00035 9.5V9ZM8.50018 9L8.94738 9.22364C9.02489 9.06865 9.01662 8.88457 8.92552 8.73715C8.83442 8.58973 8.67348 8.5 8.50018 8.5V9ZM7.05278 10.7764C6.92926 11.0233 7.02935 11.3237 7.27633 11.4472C7.52331 11.5707 7.82365 11.4706 7.94717 11.2236L7.05278 10.7764ZM14.5 9.50001V7.92357H13.5V9.50001H14.5ZM13.6644 6.93717L11.2403 6.53315L11.0759 7.51954L13.5 7.92357L13.6644 6.93717ZM11.2403 6.53315L9.93934 5.23223L9.23223 5.93934L10.5331 7.24026L11.2403 6.53315ZM8.17157 4.5H4.96125V5.5H8.17157V4.5ZM3.00908 5.43826L1.71913 7.0507L2.5 7.67539L3.78995 6.06296L3.00908 5.43826ZM1.5 7.67539V9.50001H2.5V7.67539H1.5ZM2.5 10.5H3V9.50001H2.5V10.5ZM12.5 10.5H13.5V9.50001H12.5V10.5ZM1.71913 7.0507C1.57728 7.22801 1.5 7.44832 1.5 7.67539H2.5L2.5 7.67539L1.71913 7.0507ZM4.96125 4.5C4.20179 4.5 3.48351 4.84522 3.00908 5.43826L3.78995 6.06296C4.0746 5.70713 4.50557 5.5 4.96125 5.5V4.5ZM9.93934 5.23223C9.4705 4.76339 8.83461 4.5 8.17157 4.5V5.5C8.5694 5.5 8.95093 5.65804 9.23223 5.93934L9.93934 5.23223ZM11.2403 6.53315L11.2403 6.53315L10.5331 7.24025C10.6805 7.38763 10.8703 7.48528 11.0759 7.51954L11.2403 6.53315ZM14.5 7.92357C14.5 7.43473 14.1466 7.01754 13.6644 6.93717L13.5 7.92357L13.5 7.92357H14.5ZM13.5 9.50001V10.5C14.0523 10.5 14.5 10.0523 14.5 9.50001H13.5ZM1.5 9.50001C1.5 10.0523 1.94771 10.5 2.5 10.5V9.50001V9.50001H1.5ZM5 10C5 10.4142 4.66421 10.75 4.25 10.75V11.75C5.2165 11.75 6 10.9665 6 10H5ZM4.25 10.75C3.83578 10.75 3.5 10.4142 3.5 10H2.5C2.5 10.9665 3.2835 11.75 4.25 11.75V10.75ZM3.5 10C3.5 9.58579 3.83579 9.25 4.25 9.25V8.25C3.2835 8.25 2.5 9.03351 2.5 10H3.5ZM4.25 9.25C4.66421 9.25 5 9.58579 5 10H6C6 9.0335 5.2165 8.25 4.25 8.25V9.25ZM12 10C12 10.4142 11.6642 10.75 11.25 10.75V11.75C12.2165 11.75 13 10.9665 13 10H12ZM11.25 10.75C10.8358 10.75 10.5 10.4142 10.5 10H9.5C9.5 10.9665 10.2835 11.75 11.25 11.75V10.75ZM10.5 10C10.5 9.58579 10.8358 9.25 11.25 9.25V8.25C10.2835 8.25 9.5 9.0335 9.5 10H10.5ZM11.25 9.25C11.6642 9.25 12 9.58579 12 10H13C13 9.03351 12.2165 8.25 11.25 8.25V9.25ZM7.55295 6.77642L6.55312 8.77642L7.44758 9.22358L8.44741 7.22358L7.55295 6.77642ZM7.00035 9.5H8.50018V8.5H7.00035V9.5ZM8.05299 8.77636L7.05278 10.7764L7.94717 11.2236L8.94738 9.22364L8.05299 8.77636Z" fill="black"/>
</svg>
