<svg width="16" height="16" viewBox="0 0 16 16" fill="none" xmlns="http://www.w3.org/2000/svg">
<path d="M3 10H2.5C2.22386 10 2 9.77615 2 9.50001V7.67539C2 7.56186 2.03864 7.4517 2.10957 7.36305L3.39951 5.75061C3.77906 5.27618 4.35368 5 4.96125 5H8.17157C8.70201 5 9.21071 5.21071 9.58579 5.58579L10.8867 6.8867C10.9604 6.96039 11.0553 7.00921 11.1581 7.02635L13.5822 7.43037C13.8233 7.47055 14 7.67915 14 7.92357V9.50001C14 9.77615 13.7761 10 13.5 10H12.5M3 10C3 10.6904 3.55964 11.25 4.25 11.25C4.94036 11.25 5.5 10.6904 5.5 10M3 10C3 9.30965 3.55964 8.75 4.25 8.75C4.94036 8.75 5.5 9.30965 5.5 10M5.5 10L10 10M10 10C10 10.6904 10.5596 11.25 11.25 11.25C11.9404 11.25 12.5 10.6904 12.5 10M10 10C10 9.30965 10.5596 8.75 11.25 8.75C11.9404 8.75 12.5 9.30965 12.5 10" stroke="black"/>
</svg>
