<svg width="16" height="16" viewBox="0 0 16 16" fill="none" xmlns="http://www.w3.org/2000/svg">
<path d="M6.5 7.99998C7.5 8.49998 8 9.5 8 9.5C9 7.5 10.5 5.49998 12 4.49998" stroke="black" stroke-linecap="round" stroke-linejoin="round"/>
<path d="M11.3812 7.09568C11.5843 7.85515 11.5258 8.66089 11.2151 9.38307C10.9045 10.1053 10.3597 10.7018 9.66865 11.0766C8.97759 11.4514 8.18045 11.5827 7.4057 11.4492C6.63095 11.3157 5.92371 10.9252 5.39793 10.3408C4.87214 9.7563 4.55845 9.01183 4.50739 8.22732C4.45633 7.44281 4.67088 6.66396 5.11646 6.01626C5.56205 5.36857 6.21272 4.88975 6.96363 4.65696C7.71454 4.42417 8.52195 4.45097 9.25578 4.73304" stroke="black" stroke-linecap="round" stroke-linejoin="round"/>
</svg>
