<svg width="16" height="16" viewBox="0 0 16 16" fill="none" xmlns="http://www.w3.org/2000/svg">
<path d="M9 8.00002C9 8.5523 8.55228 9.00002 8 9.00002C7.44772 9.00002 7 8.5523 7 8.00002C7 7.44773 7.44772 7.00002 8 7.00002C8.55228 7.00002 9 7.44773 9 8.00002Z" fill="black"/>
<path d="M9 11.5C9 12.0523 8.55228 12.5 8 12.5C7.44772 12.5 7 12.0523 7 11.5C7 10.9477 7.44772 10.5 8 10.5C8.55228 10.5 9 10.9477 9 11.5Z" fill="black"/>
<path d="M9 4.5C9 5.05228 8.55228 5.5 8 5.5C7.44772 5.5 7 5.05228 7 4.5C7 3.94772 7.44772 3.5 8 3.5C8.55228 3.5 9 3.94772 9 4.5Z" fill="black"/>
</svg>
