<svg width="16" height="16" viewBox="0 0 16 16" fill="none" xmlns="http://www.w3.org/2000/svg">
<path d="M9 8.00001C9 8.55229 8.55228 9.00001 8 9.00001C7.44772 9.00001 7 8.55229 7 8.00001C7 7.44772 7.44772 7.00001 8 7.00001C8.55228 7.00001 9 7.44772 9 8.00001Z" fill="black"/>
<path d="M9 11.5C9 12.0523 8.55228 12.5 8 12.5C7.44772 12.5 7 12.0523 7 11.5C7 10.9477 7.44772 10.5 8 10.5C8.55228 10.5 9 10.9477 9 11.5Z" fill="black"/>
<path d="M9 4.5C9 5.05228 8.55228 5.5 8 5.5C7.44772 5.5 7 5.05228 7 4.5C7 3.94772 7.44772 3.5 8 3.5C8.55228 3.5 9 3.94772 9 4.5Z" fill="black"/>
<path d="M5.5 8.00001C5.5 8.55229 5.05228 9.00001 4.5 9.00001C3.94772 9.00001 3.5 8.55229 3.5 8.00001C3.5 7.44772 3.94772 7.00001 4.5 7.00001C5.05228 7.00001 5.5 7.44772 5.5 8.00001Z" fill="black"/>
<path d="M5.5 11.5C5.5 12.0523 5.05228 12.5 4.5 12.5C3.94772 12.5 3.5 12.0523 3.5 11.5C3.5 10.9477 3.94772 10.5 4.5 10.5C5.05228 10.5 5.5 10.9477 5.5 11.5Z" fill="black"/>
<path d="M5.5 4.5C5.5 5.05228 5.05228 5.5 4.5 5.5C3.94772 5.5 3.5 5.05228 3.5 4.5C3.5 3.94772 3.94772 3.5 4.5 3.5C5.05228 3.5 5.5 3.94772 5.5 4.5Z" fill="black"/>
<path d="M12.5 8.00001C12.5 8.55229 12.0523 9.00001 11.5 9.00001C10.9477 9.00001 10.5 8.55229 10.5 8.00001C10.5 7.44772 10.9477 7.00001 11.5 7.00001C12.0523 7.00001 12.5 7.44772 12.5 8.00001Z" fill="black"/>
<path d="M12.5 11.5C12.5 12.0523 12.0523 12.5 11.5 12.5C10.9477 12.5 10.5 12.0523 10.5 11.5C10.5 10.9477 10.9477 10.5 11.5 10.5C12.0523 10.5 12.5 10.9477 12.5 11.5Z" fill="black"/>
<path d="M12.5 4.5C12.5 5.05228 12.0523 5.5 11.5 5.5C10.9477 5.5 10.5 5.05228 10.5 4.5C10.5 3.94772 10.9477 3.5 11.5 3.5C12.0523 3.5 12.5 3.94772 12.5 4.5Z" fill="black"/>
</svg>
