<svg width="16" height="16" viewBox="0 0 16 16" fill="none" xmlns="http://www.w3.org/2000/svg">
<path d="M7.25031 8.00001C7.25031 8.55229 6.80259 9.00001 6.25031 9.00001C5.69802 9.00001 5.25031 8.55229 5.25031 8.00001C5.25031 7.44772 5.69802 7.00001 6.25031 7.00001C6.80259 7.00001 7.25031 7.44772 7.25031 8.00001Z" fill="black"/>
<path d="M7.25 11.5C7.25 12.0523 6.80228 12.5 6.25 12.5C5.69772 12.5 5.25 12.0523 5.25 11.5C5.25 10.9477 5.69772 10.5 6.25 10.5C6.80228 10.5 7.25 10.9477 7.25 11.5Z" fill="black"/>
<path d="M7.25031 4.5C7.25031 5.05228 6.80259 5.5 6.25031 5.5C5.69802 5.5 5.25031 5.05228 5.25031 4.5C5.25031 3.94772 5.69802 3.5 6.25031 3.5C6.80259 3.5 7.25031 3.94772 7.25031 4.5Z" fill="black"/>
<path d="M10.7504 8.00001C10.7504 8.55229 10.3027 9.00001 9.75037 9.00001C9.19808 9.00001 8.75037 8.55229 8.75037 8.00001C8.75037 7.44772 9.19808 7.00001 9.75037 7.00001C10.3027 7.00001 10.7504 7.44772 10.7504 8.00001Z" fill="black"/>
<path d="M10.7501 11.5C10.7501 12.0523 10.3023 12.5 9.75006 12.5C9.19778 12.5 8.75006 12.0523 8.75006 11.5C8.75006 10.9477 9.19778 10.5 9.75006 10.5C10.3023 10.5 10.7501 10.9477 10.7501 11.5Z" fill="black"/>
<path d="M10.7504 4.5C10.7504 5.05228 10.3027 5.5 9.75037 5.5C9.19808 5.5 8.75037 5.05228 8.75037 4.5C8.75037 3.94772 9.19808 3.5 9.75037 3.5C10.3027 3.5 10.7504 3.94772 10.7504 4.5Z" fill="black"/>
</svg>
