<svg width="16" height="16" viewBox="0 0 16 16" fill="none" xmlns="http://www.w3.org/2000/svg">
<path d="M9.00012 8.00001C9.00012 8.55229 8.5524 9.00001 8.00012 9.00001C7.44783 9.00001 7.00012 8.55229 7.00012 8.00001C7.00012 7.44772 7.44783 7.00001 8.00012 7.00001C8.5524 7.00001 9.00012 7.44772 9.00012 8.00001Z" fill="black"/>
<path d="M12.5002 8.00001C12.5002 8.55229 12.0525 9.00001 11.5002 9.00001C10.9479 9.00001 10.5002 8.55229 10.5002 8.00001C10.5002 7.44772 10.9479 7.00001 11.5002 7.00001C12.0525 7.00001 12.5002 7.44772 12.5002 8.00001Z" fill="black"/>
<path d="M5.5 8C5.5 8.55228 5.05228 9 4.5 9C3.94772 9 3.5 8.55228 3.5 8C3.5 7.44772 3.94772 7 4.5 7C5.05228 7 5.5 7.44772 5.5 8Z" fill="black"/>
</svg>
