<svg width="16" height="16" viewBox="0 0 16 16" fill="none" xmlns="http://www.w3.org/2000/svg">
<path d="M8.99991 9.75001C8.99991 10.3023 8.5522 10.75 7.99991 10.75C7.44763 10.75 6.99991 10.3023 6.99991 9.75001C6.99991 9.19773 7.44763 8.75001 7.99991 8.75001C8.5522 8.75001 8.99991 9.19773 8.99991 9.75001Z" fill="black"/>
<path d="M12.4999 9.75C12.4999 10.3023 12.0522 10.75 11.4999 10.75C10.9476 10.75 10.4999 10.3023 10.4999 9.75C10.4999 9.19772 10.9476 8.75 11.4999 8.75C12.0522 8.75 12.4999 9.19772 12.4999 9.75Z" fill="black"/>
<path d="M5.5 9.75001C5.5 10.3023 5.05228 10.75 4.5 10.75C3.94772 10.75 3.5 10.3023 3.5 9.75001C3.5 9.19773 3.94772 8.75001 4.5 8.75001C5.05228 8.75001 5.5 9.19773 5.5 9.75001Z" fill="black"/>
<path d="M8.99991 6.25001C8.99991 6.80229 8.5522 7.25001 7.99991 7.25001C7.44763 7.25001 6.99991 6.80229 6.99991 6.25001C6.99991 5.69772 7.44763 5.25001 7.99991 5.25001C8.5522 5.25001 8.99991 5.69772 8.99991 6.25001Z" fill="black"/>
<path d="M12.4999 6.25C12.4999 6.80228 12.0522 7.25 11.4999 7.25C10.9476 7.25 10.4999 6.80228 10.4999 6.25C10.4999 5.69772 10.9476 5.25 11.4999 5.25C12.0522 5.25 12.4999 5.69772 12.4999 6.25Z" fill="black"/>
<path d="M5.5 6.25001C5.5 6.80229 5.05228 7.25001 4.5 7.25001C3.94772 7.25001 3.5 6.80229 3.5 6.25001C3.5 5.69772 3.94772 5.25001 4.5 5.25001C5.05228 5.25001 5.5 5.69772 5.5 6.25001Z" fill="black"/>
</svg>
