<svg width="16" height="16" viewBox="0 0 16 16" fill="none" xmlns="http://www.w3.org/2000/svg">
<path d="M8 7.66922L13 11.2692H3L8 7.66922ZM8 7.66922V7.26922M8 7.25C8 6.75 8.39112 6.67213 8.55557 6.56224C8.72002 6.45236 8.84819 6.29618 8.92388 6.11346C8.99957 5.93073 9.01937 5.72967 8.98079 5.53568C8.9422 5.3417 8.84696 5.16352 8.70711 5.02367C8.56725 4.88382 8.38907 4.78857 8.19509 4.74999C8.00111 4.7114 7.80004 4.73121 7.61732 4.80689C7.43459 4.88258 7.27841 5.01075 7.16853 5.1752C7.05865 5.33965 7 5.53299 7 5.73077" stroke="black" stroke-linecap="round" stroke-linejoin="round"/>
</svg>
