<svg width="16" height="16" viewBox="0 0 16 16" fill="none" xmlns="http://www.w3.org/2000/svg">
<path d="M6.4 6.99999L4.1 7C3.76863 7 3.5 6.73137 3.5 6.4V4.09999C3.5 3.76862 3.76863 3.49999 4.1 3.49999L6.4 3.49999C6.73137 3.49998 7 3.76861 7 4.09999V6.39999C7 6.73136 6.73137 6.99999 6.4 6.99999Z" stroke="black" stroke-linecap="round"/>
<path d="M11.9 7.00002L9.60001 7.00005C9.26863 7.00005 9 6.73142 9 6.40005V4.10004C9 3.76867 9.26862 3.50004 9.59999 3.50004L11.9 3.50001C12.2314 3.5 12.5 3.76863 12.5 4.10001V6.40002C12.5 6.73138 12.2314 7.00001 11.9 7.00002Z" stroke="black" stroke-linecap="round"/>
<path d="M11.9 12.5H9.6C9.26863 12.5 9 12.2314 9 11.9V9.6C9 9.26863 9.26863 9 9.6 9H11.9C12.2314 9 12.5 9.26863 12.5 9.6V11.9C12.5 12.2314 12.2314 12.5 11.9 12.5Z" stroke="black" stroke-linecap="round"/>
<path d="M6.40007 12.5H4.10003C3.76865 12.5 3.50001 12.2314 3.50003 11.9L3.50014 9.59997C3.50016 9.26861 3.76879 9 4.10014 9H6.40019C6.73157 9 7.0002 9.26865 7.00019 9.60003L7.00007 11.9C7.00006 12.2314 6.73143 12.5 6.40007 12.5Z" stroke="black" stroke-linecap="round"/>
</svg>
