<svg width="16" height="16" viewBox="0 0 16 16" fill="none" xmlns="http://www.w3.org/2000/svg">
<path d="M6 5V4.5C5.72386 4.5 5.5 4.72386 5.5 5H6ZM10.9999 5H11.4999C11.4999 4.72386 11.276 4.5 10.9999 4.5V5ZM5.5 5V10H6.5V5H5.5ZM5.5 10C5.5 10.2761 5.27614 10.5 5 10.5V11.5C5.82843 11.5 6.5 10.8284 6.5 10H5.5ZM5 10.5C4.72386 10.5 4.5 10.2761 4.5 10H3.5C3.5 10.8284 4.17157 11.5 5 11.5V10.5ZM4.5 10C4.5 9.72386 4.72386 9.5 5 9.5V8.5C4.17157 8.5 3.5 9.17157 3.5 10H4.5ZM5 9.5C5.27614 9.5 5.5 9.72386 5.5 10H6.5C6.5 9.17157 5.82843 8.5 5 8.5V9.5ZM10.4999 5V10H11.4999V5H10.4999ZM10.4999 10C10.4999 10.2762 10.2761 10.5 10 10.5V11.5C10.8285 11.5 11.4999 10.8284 11.4999 10H10.4999ZM10 10.5C9.72386 10.5 9.5 10.2761 9.5 10H8.5C8.5 10.8284 9.17157 11.5 10 11.5V10.5ZM9.5 10C9.5 9.72386 9.72386 9.5 10 9.5V8.5C9.17157 8.5 8.5 9.17157 8.5 10H9.5ZM10 9.5C10.2761 9.5 10.4999 9.72378 10.4999 10H11.4999C11.4999 9.17165 10.8285 8.5 10 8.5V9.5ZM10.9999 4.5H6V5.5H10.9999V4.5Z" fill="black"/>
</svg>
