<svg width="16" height="16" viewBox="0 0 16 16" fill="none" xmlns="http://www.w3.org/2000/svg">
<path d="M10.5 5H4M8.5 11H4M4 7H10.5M4 9H8.5" stroke="black" stroke-linecap="round" stroke-linejoin="round"/>
<path d="M13 5.5C13.2761 5.5 13.5 5.27614 13.5 5C13.5 4.72386 13.2761 4.5 13 4.5V5.5ZM12 5V4.5C11.7239 4.5 11.5 4.72386 11.5 5H12ZM13 4.5H12V5.5H13V4.5ZM11.5 5V10H12.5V5H11.5ZM11.5 10C11.5 10.2761 11.2761 10.5 11 10.5V11.5C11.8284 11.5 12.5 10.8284 12.5 10H11.5ZM11 10.5C10.7239 10.5 10.5 10.2761 10.5 10H9.5C9.5 10.8284 10.1716 11.5 11 11.5V10.5ZM10.5 10C10.5 9.72386 10.7239 9.5 11 9.5V8.5C10.1716 8.5 9.5 9.17157 9.5 10H10.5ZM11 9.5C11.2761 9.5 11.5 9.72386 11.5 10H12.5C12.5 9.17157 11.8284 8.5 11 8.5V9.5Z" fill="black"/>
</svg>
