<svg width="16" height="16" viewBox="0 0 16 16" fill="none" xmlns="http://www.w3.org/2000/svg">
<path d="M7 8L12 8M5 8H4M4 5L7 5M9 5L12 5M9 11H4M11 11H12M9 11.25V10.75C9 10.4739 9.22386 10.25 9.5 10.25H10.5C10.7761 10.25 11 10.4739 11 10.75V11.25C11 11.5261 10.7761 11.75 10.5 11.75H9.5C9.22386 11.75 9 11.5261 9 11.25ZM7 5.25V4.75C7 4.47386 7.22386 4.25 7.5 4.25L8.5 4.25C8.77614 4.25 9 4.47386 9 4.75V5.25C9 5.52614 8.77614 5.75 8.5 5.75H7.5C7.22386 5.75 7 5.52614 7 5.25ZM5 8.25V7.75C5 7.47386 5.22386 7.25 5.5 7.25H6.5C6.77614 7.25 7 7.47386 7 7.75V8.25C7 8.52614 6.77614 8.75 6.5 8.75H5.5C5.22386 8.75 5 8.52614 5 8.25Z" stroke="black" stroke-linecap="round" stroke-linejoin="round"/>
</svg>
