<svg width="16" height="16" viewBox="0 0 16 16" fill="none" xmlns="http://www.w3.org/2000/svg">
<path d="M8 9V4M8 11V12M11 12V9M11 7V4M5 7V12M5 5V4M4.75 7H5.25C5.52614 7 5.75 6.77614 5.75 6.5V5.5C5.75 5.22386 5.52614 5 5.25 5H4.75C4.47386 5 4.25 5.22386 4.25 5.5V6.5C4.25 6.77614 4.47386 7 4.75 7ZM10.75 9H11.25C11.5261 9 11.75 8.77614 11.75 8.5V7.5C11.75 7.22386 11.5261 7 11.25 7H10.75C10.4739 7 10.25 7.22386 10.25 7.5V8.5C10.25 8.77614 10.4739 9 10.75 9ZM7.75 11H8.25C8.52614 11 8.75 10.7761 8.75 10.5V9.5C8.75 9.22386 8.52614 9 8.25 9H7.75C7.47386 9 7.25 9.22386 7.25 9.5V10.5C7.25 10.7761 7.47386 11 7.75 11Z" stroke="black" stroke-linecap="round" stroke-linejoin="round"/>
</svg>
