<svg width="16" height="16" viewBox="0 0 16 16" fill="none" xmlns="http://www.w3.org/2000/svg">
<circle cx="8" cy="8" r="0.5" stroke="black"/>
<path d="M6.23223 9.76777C6.00009 9.53562 5.81594 9.26002 5.6903 8.95671C5.56466 8.65339 5.5 8.3283 5.5 8C5.5 7.6717 5.56466 7.34661 5.6903 7.04329C5.81594 6.73998 6.00009 6.46438 6.23223 6.23223" stroke="black" stroke-linecap="round" stroke-linejoin="round"/>
<path d="M4.81802 11.182C4.40016 10.7641 4.06869 10.268 3.84254 9.72208C3.6164 9.17611 3.5 8.59095 3.5 8C3.5 7.40905 3.6164 6.82389 3.84254 6.27792C4.06869 5.73196 4.40016 5.23588 4.81802 4.81802" stroke="black" stroke-linecap="round" stroke-linejoin="round"/>
<path d="M9.76777 9.76777C9.99991 9.53562 10.1841 9.26002 10.3097 8.95671C10.4353 8.65339 10.5 8.3283 10.5 8C10.5 7.6717 10.4353 7.34661 10.3097 7.04329C10.1841 6.73998 9.99991 6.46438 9.76777 6.23223" stroke="black" stroke-linecap="round" stroke-linejoin="round"/>
<path d="M11.182 11.182C11.5998 10.7641 11.9313 10.268 12.1575 9.72208C12.3836 9.17611 12.5 8.59095 12.5 8C12.5 7.40905 12.3836 6.82389 12.1575 6.27792C11.9313 5.73196 11.5998 5.23588 11.182 4.81802" stroke="black" stroke-linecap="round" stroke-linejoin="round"/>
</svg>
