<svg width="16" height="16" viewBox="0 0 16 16" fill="none" xmlns="http://www.w3.org/2000/svg">
<path d="M4.5 12C4.5 11.5404 4.59053 11.0852 4.76642 10.6606C4.94231 10.236 5.20012 9.85013 5.52513 9.52513C5.85013 9.20012 6.23597 8.94231 6.66061 8.76642C7.08525 8.59053 7.54037 8.5 8 8.5C8.45963 8.5 8.91475 8.59053 9.33939 8.76642C9.76403 8.94231 10.1499 9.20012 10.4749 9.52513C10.7999 9.85013 11.0577 10.236 11.2336 10.6606C11.4095 11.0852 11.5 11.5404 11.5 12" stroke="black"/>
<path d="M8 3V7M8 7L9 6M8 7L7 6M14 12H2M5.5 7.66987L5 6.80385M12.3301 9.5L13.1962 9M3.66998 9.5L2.80396 9M10.5001 7.66987L11.0001 6.80385" stroke="black" stroke-linecap="round" stroke-linejoin="round"/>
</svg>
