<svg width="16" height="16" viewBox="0 0 16 16" fill="none" xmlns="http://www.w3.org/2000/svg">
<path d="M9.76786 8.23223C9.53572 8.00009 9.26012 7.81594 8.95681 7.6903C8.65349 7.56466 8.3284 7.5 8.0001 7.5C7.67179 7.5 7.3467 7.56466 7.04339 7.6903C6.74007 7.81594 6.46448 8.00009 6.23233 8.23223M11.1821 6.81802C10.7642 6.40016 10.2681 6.06869 9.72217 5.84254C9.17621 5.6164 8.59104 5.5 8.0001 5.5C7.40915 5.5 6.82399 5.6164 6.27802 5.84254C5.73206 6.06869 5.23598 6.40016 4.81812 6.81802M7.64664 9.64645C7.7404 9.55269 7.86758 9.50001 8.00019 9.50001C8.1328 9.50001 8.25998 9.55269 8.35374 9.64645L8.00019 10L7.64664 9.64645Z" stroke="black" stroke-linecap="round" stroke-linejoin="round"/>
</svg>
